<?xml version="1.0" encoding="UTF-8" standalone="no"?>
<!-- Created with Inkscape (http://www.inkscape.org/) -->

<svg
   xmlns:dc="http://purl.org/dc/elements/1.1/"
   xmlns:cc="http://creativecommons.org/ns#"
   xmlns:rdf="http://www.w3.org/1999/02/22-rdf-syntax-ns#"
   xmlns:svg="http://www.w3.org/2000/svg"
   xmlns="http://www.w3.org/2000/svg"
   xmlns:sodipodi="http://sodipodi.sourceforge.net/DTD/sodipodi-0.dtd"
   xmlns:inkscape="http://www.inkscape.org/namespaces/inkscape"
   width="112.94962mm"
   height="58.46191mm"
   viewBox="0 0 112.94962 58.46191"
   version="1.1"
   id="svg8"
   inkscape:version="0.92.3 (2405546, 2018-03-11)"
   sodipodi:docname="opponents-src.svg">
  <defs
     id="defs2" />
  <sodipodi:namedview
     id="base"
     pagecolor="#ffffff"
     bordercolor="#666666"
     borderopacity="1.0"
     inkscape:pageopacity="0.0"
     inkscape:pageshadow="2"
     inkscape:zoom="1.2882755"
     inkscape:cx="55.468121"
     inkscape:cy="210.6787"
     inkscape:document-units="mm"
     inkscape:current-layer="layer1"
     showgrid="false"
     showguides="true"
     inkscape:guide-bbox="true"
     fit-margin-top="0"
     fit-margin-left="0"
     fit-margin-right="0"
     fit-margin-bottom="0"
     inkscape:window-width="1920"
     inkscape:window-height="1017"
     inkscape:window-x="-8"
     inkscape:window-y="-8"
     inkscape:window-maximized="1">
    <sodipodi:guide
       position="79.192102,58.445055"
       orientation="0,1"
       id="guide4779"
       inkscape:locked="false" />
  </sodipodi:namedview>
  <metadata
     id="metadata5">
    <rdf:RDF>
      <cc:Work
         rdf:about="">
        <dc:format>image/svg+xml</dc:format>
        <dc:type
           rdf:resource="http://purl.org/dc/dcmitype/StillImage" />
        <dc:title></dc:title>
      </cc:Work>
    </rdf:RDF>
  </metadata>
  <g
     inkscape:label="Laag 1"
     inkscape:groupmode="layer"
     id="layer1"
     transform="translate(-46.319476,-26.320727)">
    <path
       style="fill:#000000;stroke:none;stroke-width:0.12846093px;stroke-linecap:butt;stroke-linejoin:miter;stroke-opacity:1"
       d="m 138.39457,26.343042 c -16.78767,0.538463 -18.63367,11.220229 -18.74274,14.632632 -0.0751,2.348211 1.25543,5.709966 1.25543,5.709966 0,0 -16.75796,7.736365 -14.51522,12.895135 2.24275,5.15877 14.66411,0.42285 14.66411,0.42285 l 0.69008,2.114251 c 0,0 -3.53899,0.0568 -2.71464,1.726223 0.69617,1.409832 3.10839,-0.149242 3.10839,-0.149242 l 0.46884,1.213829 c 0,0 -2.78788,0.930845 -2.07022,2.28339 0.62716,1.181988 3.01907,-0.93027 3.01907,-0.93027 0,0 0.42633,0.914409 0.77634,1.268549 2.63827,2.669404 10.60992,5.835331 16.8206,5.835331 6.21068,0 7.24579,11.416951 7.24579,11.416951 l 10.8687,-0.422848 -8.62392,-12.294491 c 0,0 7.80566,-14.732994 7.8498,-22.333297 0.0804,-13.850413 -4.98771,-23.873697 -20.10041,-23.388959 z"
       id="path4747"
       inkscape:connector-curvature="0"
       sodipodi:nodetypes="sscsccsccscsscccss" />
    <path
       style="fill:#000000;stroke:none;stroke-width:0.12846093px;stroke-linecap:butt;stroke-linejoin:miter;stroke-opacity:1"
       d="m 67.194008,26.337581 c 16.78767,0.538463 18.63367,11.220229 18.74274,14.632632 0.0751,2.348211 -1.25543,5.709966 -1.25543,5.709966 0,0 16.757962,7.736364 14.515222,12.895136 -2.24275,5.158769 -14.664112,0.422849 -14.664112,0.422849 l -0.69008,2.114251 c 0,0 3.53899,0.0568 2.71464,1.726223 -0.69617,1.409833 -3.10839,-0.149243 -3.10839,-0.149243 l -0.46884,1.213831 c 0,0 2.78788,0.930844 2.07022,2.283389 -0.62716,1.181989 -3.01907,-0.93027 -3.01907,-0.93027 0,0 -0.42633,0.914408 -0.77634,1.26855 -2.63827,2.669403 -10.60992,5.83533 -16.8206,5.83533 -6.21068,0 -7.24579,11.416951 -7.24579,11.416951 L 46.319476,84.354329 54.943398,72.059838 c 0,0 -7.805662,-14.732995 -7.849802,-22.333298 -0.0804,-13.850413 4.987712,-23.873697 20.100412,-23.388959 z"
       id="path4747-2"
       inkscape:connector-curvature="0"
       sodipodi:nodetypes="sscsccsccscsscccss" />
  </g>
</svg>
